<?xml version="1.0" standalone="no"?>
<!DOCTYPE svg PUBLIC "-//W3C//DTD SVG 20010904//EN"
 "http://www.w3.org/TR/2001/REC-SVG-20010904/DTD/svg10.dtd">
<svg version="1.0" xmlns="http://www.w3.org/2000/svg"
 width="203.000000pt" height="72.000000pt" viewBox="0 0 203.000000 72.000000"
 preserveAspectRatio="xMidYMid meet">

<g transform="translate(0.000000,72.000000) scale(0.100000,-0.100000)"
fill="#000000" stroke="none">
<path d="M1368 679 c-15 -6 -33 -25 -43 -45 -15 -33 -15 -37 2 -71 34 -69 110
-67 139 2 13 32 13 39 -1 69 -12 26 -55 60 -68 55 -1 0 -14 -5 -29 -10z"/>
<path d="M1758 575 c-83 -31 -191 -129 -278 -252 -24 -35 -47 -63 -52 -63 -4
0 -29 13 -55 29 -69 42 -195 91 -285 109 -42 9 -79 14 -81 12 -2 -3 -7 -17
-11 -32 -5 -23 -3 -28 16 -32 116 -22 152 -32 215 -56 40 -15 111 -54 159 -86
50 -33 89 -53 92 -46 11 35 147 224 189 264 95 88 182 113 222 62 26 -33 26
-55 3 -84 -25 -31 -69 -21 -83 20 -10 27 -12 28 -42 18 -49 -16 -52 -23 -33
-73 53 -137 256 -83 256 69 0 114 -115 184 -232 141z"/>
<path d="M1474 523 c-25 -26 -39 -33 -70 -33 -21 0 -50 6 -64 13 -22 12 -29
10 -61 -13 -33 -24 -85 -49 -134 -65 -15 -5 -6 -11 40 -26 33 -11 98 -39 145
-62 47 -23 88 -43 91 -45 3 -1 26 23 49 55 24 32 75 90 113 130 l70 72 -34 -5
c-19 -3 -52 -1 -74 4 -38 8 -42 7 -71 -25z"/>
<path d="M50 161 c0 -70 3 -90 15 -95 12 -4 15 4 15 40 l0 45 43 -3 c42 -3 42
-3 45 -45 6 -81 22 -43 22 52 0 53 -4 95 -9 95 -6 0 -11 -17 -13 -37 -3 -37
-4 -38 -43 -38 -39 0 -40 1 -43 38 -2 24 -8 37 -18 37 -11 0 -14 -18 -14 -89z"/>
<path d="M240 175 c0 -62 4 -79 20 -95 27 -27 66 -25 95 5 22 21 25 33 25 95
0 56 -3 70 -15 70 -12 0 -15 -14 -15 -69 0 -70 -14 -101 -44 -101 -26 0 -36
26 -36 97 0 58 -3 73 -15 73 -12 0 -15 -15 -15 -75z"/>
<path d="M429 245 c0 -3 -1 -23 -1 -45 0 -110 3 -140 12 -140 5 0 10 33 12 72
l3 73 44 -73 c24 -40 49 -71 55 -69 7 2 12 39 14 95 2 77 0 92 -13 92 -12 0
-15 -13 -15 -67 l0 -67 -42 67 c-24 37 -49 67 -55 67 -7 0 -13 -2 -14 -5z"/>
<path d="M612 158 l3 -93 53 -3 c42 -2 52 0 52 12 0 12 -11 16 -40 16 -38 0
-40 2 -40 30 0 28 3 30 35 30 19 0 35 5 35 10 0 6 -16 10 -35 10 -32 0 -35 2
-35 30 0 28 2 30 40 30 22 0 40 5 40 10 0 6 -25 10 -55 10 l-56 0 3 -92z"/>
<path d="M760 155 c0 -57 4 -95 10 -95 6 0 10 20 10 45 l0 45 44 0 45 0 3 -42
c6 -79 23 -45 26 50 2 77 0 92 -13 92 -11 0 -15 -11 -15 -41 l0 -40 -42 3
c-42 3 -43 4 -46 41 -2 20 -7 37 -13 37 -5 0 -9 -42 -9 -95z"/>
<path d="M965 168 c-16 -46 -30 -89 -33 -95 -2 -7 3 -13 11 -13 9 0 18 13 22
30 6 26 11 30 41 30 30 0 37 -4 45 -30 11 -30 29 -41 29 -18 0 6 -12 49 -27
95 -36 110 -50 110 -88 1z m60 0 c6 -24 4 -28 -14 -28 -22 0 -25 10 -15 48 8
27 20 19 29 -20z"/>
<path d="M1120 155 c0 -73 3 -96 13 -92 6 2 12 20 12 41 0 33 2 37 24 34 18
-2 28 -13 36 -37 16 -48 40 -55 30 -10 -4 19 -11 39 -16 45 -6 7 -3 22 6 40
22 43 2 68 -59 72 l-46 3 0 -96z m85 46 c0 -18 -7 -26 -27 -32 -27 -7 -28 -6
-28 28 0 32 2 34 28 31 21 -2 27 -8 27 -27z"/>
</g>
</svg>
